<?xml version="1.0" encoding="UTF-8" standalone="no"?>
<svg
   xmlns:dc="http://purl.org/dc/elements/1.1/"
   xmlns:cc="http://creativecommons.org/ns#"
   xmlns:rdf="http://www.w3.org/1999/02/22-rdf-syntax-ns#"
   xmlns:svg="http://www.w3.org/2000/svg"
   xmlns="http://www.w3.org/2000/svg"
   xmlns:sodipodi="http://sodipodi.sourceforge.net/DTD/sodipodi-0.dtd"
   xmlns:inkscape="http://www.inkscape.org/namespaces/inkscape"
   version="1.1"
   id="Capa_1"
   x="0px"
   y="0px"
   viewBox="0 0 294.843 294.843"
   style="enable-background:new 0 0 294.843 294.843;"
   xml:space="preserve"
   sodipodi:docname="menu-button-svgrepo-com.svg"
   inkscape:version="1.0.2 (394de47547, 2021-03-26)"><metadata
   id="metadata47"><rdf:RDF><cc:Work
       rdf:about=""><dc:format>image/svg+xml</dc:format><dc:type
         rdf:resource="http://purl.org/dc/dcmitype/StillImage" /></cc:Work></rdf:RDF></metadata><defs
   id="defs45" /><sodipodi:namedview
   pagecolor="#ffffff"
   bordercolor="#666666"
   borderopacity="1"
   objecttolerance="10"
   gridtolerance="10"
   guidetolerance="10"
   inkscape:pageopacity="0"
   inkscape:pageshadow="2"
   inkscape:window-width="1360"
   inkscape:window-height="704"
   id="namedview43"
   showgrid="false"
   inkscape:zoom="1.8653996"
   inkscape:cx="147.42149"
   inkscape:cy="147.42149"
   inkscape:window-x="0"
   inkscape:window-y="27"
   inkscape:window-maximized="1"
   inkscape:current-layer="Capa_1" />
<g
   id="g10"
   style="fill:#f9f9f9">
	<path
   d="M147.421,0C66.133,0,0,66.133,0,147.421c0,40.968,17.259,80.425,47.351,108.255c2.433,2.25,6.229,2.101,8.479-0.331   c2.25-2.434,2.102-6.229-0.332-8.479C27.854,221.3,12,185.054,12,147.421C12,72.75,72.75,12,147.421,12   s135.421,60.75,135.421,135.421s-60.75,135.421-135.421,135.421c-3.313,0-6,2.687-6,6s2.687,6,6,6   c81.289,0,147.421-66.133,147.421-147.421S228.71,0,147.421,0z"
   id="path2"
   style="fill:#f9f9f9" />
	<path
   d="M84.185,90.185h126.473c3.313,0,6-2.687,6-6s-2.687-6-6-6H84.185c-3.313,0-6,2.687-6,6S80.872,90.185,84.185,90.185z"
   id="path4"
   style="fill:#f9f9f9" />
	<path
   d="M84.185,153.421h126.473c3.313,0,6-2.687,6-6s-2.687-6-6-6H84.185c-3.313,0-6,2.687-6,6S80.872,153.421,84.185,153.421z"
   id="path6"
   style="fill:#f9f9f9" />
	<path
   d="M216.658,210.658c0-3.313-2.687-6-6-6H84.185c-3.313,0-6,2.687-6,6s2.687,6,6,6h126.473   C213.971,216.658,216.658,213.971,216.658,210.658z"
   id="path8"
   style="fill:#f9f9f9" />
</g>
<g
   id="g12">
</g>
<g
   id="g14">
</g>
<g
   id="g16">
</g>
<g
   id="g18">
</g>
<g
   id="g20">
</g>
<g
   id="g22">
</g>
<g
   id="g24">
</g>
<g
   id="g26">
</g>
<g
   id="g28">
</g>
<g
   id="g30">
</g>
<g
   id="g32">
</g>
<g
   id="g34">
</g>
<g
   id="g36">
</g>
<g
   id="g38">
</g>
<g
   id="g40">
</g>
</svg>
